<svg width="100" height="100" viewBox="0 0 100 100" fill="none" xmlns="http://www.w3.org/2000/svg">
    <circle cx="50" cy="50" r="38" fill="#9A48D0" stroke="black" stroke-width="4"/>
    <line x1="50" y1="10" x2="50" y2="22" stroke="black" stroke-width="2"/>
    <line x1="50" y1="78" x2="50" y2="90" stroke="black" stroke-width="2"/>
    <line x1="78" y1="50" x2="90" y2="50" stroke="black" stroke-width="2"/>
    <line x1="10" y1="50" x2="22" y2="50" stroke="black" stroke-width="2"/>
    <path d="M49.625 14L26 52.9117L56.15 55.9049L26 94L80 50.3461L42.875 47.5018L63.8 15.0152L49.625 14Z" fill="#E4B7E5"
          stroke="#63458A"/>
    <path d="M48.3677 32H47.0679V25.7212L45.1504 26.3765V25.2754L48.2012 24.1528H48.3677V32ZM56.3438 32H51.0854V31.103L53.6904 28.2617C54.0664 27.8428 54.3332 27.4937 54.4907 27.2144C54.6519 26.9315 54.7324 26.6486 54.7324 26.3657C54.7324 25.9933 54.6268 25.6925 54.4155 25.4634C54.2078 25.2342 53.9268 25.1196 53.5723 25.1196C53.1497 25.1196 52.8221 25.2485 52.5894 25.5063C52.3566 25.7642 52.2402 26.1169 52.2402 26.5645H50.9351C50.9351 26.0882 51.0425 25.6603 51.2573 25.2808C51.4757 24.8976 51.7855 24.6004 52.1865 24.3892C52.5911 24.1779 53.0566 24.0723 53.583 24.0723C54.3421 24.0723 54.9401 24.2638 55.377 24.647C55.8174 25.0265 56.0376 25.5529 56.0376 26.2261C56.0376 26.6164 55.9266 27.0264 55.7046 27.4561C55.4862 27.8822 55.1263 28.3674 54.625 28.9116L52.7129 30.958H56.3438V32Z"
          fill="black"/>
    <path d="M73.4688 49.4937H74.2637C74.6647 49.4901 74.9816 49.3862 75.2144 49.1821C75.4507 48.978 75.5688 48.6826 75.5688 48.2959C75.5688 47.9235 75.4704 47.6353 75.2734 47.4312C75.0801 47.2235 74.7829 47.1196 74.3818 47.1196C74.0309 47.1196 73.7427 47.2217 73.5171 47.4258C73.2915 47.6263 73.1787 47.8895 73.1787 48.2153H71.8735C71.8735 47.8143 71.9792 47.4491 72.1904 47.1196C72.4053 46.7902 72.7025 46.5342 73.082 46.3516C73.4652 46.1654 73.8931 46.0723 74.3657 46.0723C75.1463 46.0723 75.7586 46.2692 76.2026 46.6631C76.6502 47.0534 76.874 47.5977 76.874 48.2959C76.874 48.6468 76.7612 48.978 76.5356 49.2896C76.3136 49.5975 76.0254 49.8302 75.6709 49.9878C76.1006 50.1346 76.4264 50.3656 76.6484 50.6807C76.874 50.9958 76.9868 51.3717 76.9868 51.8086C76.9868 52.5104 76.7451 53.069 76.2617 53.4844C75.7819 53.8997 75.1499 54.1074 74.3657 54.1074C73.6138 54.1074 72.9979 53.9069 72.5181 53.5059C72.0382 53.1048 71.7983 52.5713 71.7983 51.9053H73.1035C73.1035 52.249 73.2181 52.5283 73.4473 52.7432C73.68 52.958 73.9915 53.0654 74.3818 53.0654C74.7865 53.0654 75.1051 52.958 75.3379 52.7432C75.5706 52.5283 75.687 52.2168 75.687 51.8086C75.687 51.3968 75.5653 51.0799 75.3218 50.8579C75.0783 50.6359 74.7166 50.5249 74.2368 50.5249H73.4688V49.4937Z"
          fill="black"/>
    <path d="M52.02 67.1421V68.2217H51.8589C51.1284 68.2324 50.5448 68.4329 50.1079 68.8232C49.6711 69.2135 49.4115 69.7668 49.3291 70.4829C49.748 70.0425 50.2834 69.8223 50.9351 69.8223C51.6261 69.8223 52.1704 70.0658 52.5679 70.5527C52.9689 71.0397 53.1694 71.6681 53.1694 72.438C53.1694 73.2329 52.9349 73.8774 52.4658 74.3716C52.0003 74.8621 51.388 75.1074 50.6289 75.1074C49.8483 75.1074 49.2145 74.8192 48.7275 74.2427C48.2441 73.6662 48.0024 72.9106 48.0024 71.9761V71.5303C48.0024 70.1589 48.3354 69.0846 49.0015 68.3076C49.6711 67.5306 50.6325 67.1421 51.8857 67.1421H52.02ZM50.6182 70.875C50.3317 70.875 50.0685 70.9556 49.8286 71.1167C49.5923 71.2778 49.4186 71.4927 49.3076 71.7612V72.1587C49.3076 72.7388 49.4294 73.2007 49.6729 73.5444C49.9163 73.8846 50.2314 74.0547 50.6182 74.0547C51.0049 74.0547 51.311 73.9097 51.5366 73.6196C51.7622 73.3296 51.875 72.9482 51.875 72.4756C51.875 72.0029 51.7604 71.618 51.5312 71.3208C51.3021 71.0236 50.9977 70.875 50.6182 70.875Z"
          fill="black"/>
    <path d="M26.6602 50.729C26.2233 51.1909 25.7131 51.4219 25.1294 51.4219C24.4419 51.4219 23.894 51.182 23.4858 50.7021C23.0776 50.2188 22.8735 49.585 22.8735 48.8008C22.8735 48.2852 22.9774 47.8179 23.1851 47.3989C23.3927 46.98 23.6882 46.6541 24.0713 46.4214C24.4544 46.1886 24.8984 46.0723 25.4033 46.0723C26.1911 46.0723 26.8159 46.3659 27.2778 46.9531C27.7397 47.5404 27.9707 48.3263 27.9707 49.311V49.6763C27.9707 51.0871 27.652 52.1631 27.0146 52.9043C26.3773 53.6455 25.4266 54.0215 24.1626 54.0322H24.0068V52.9526H24.1948C24.9647 52.9419 25.5555 52.7575 25.9673 52.3994C26.3791 52.0378 26.61 51.481 26.6602 50.729ZM25.4033 50.4014C25.6647 50.4014 25.91 50.3262 26.1392 50.1758C26.3683 50.0254 26.5456 49.8177 26.6709 49.5527V49.0425C26.6709 48.466 26.5527 48.0023 26.3164 47.6514C26.0801 47.3005 25.7739 47.125 25.3979 47.125C25.022 47.125 24.7212 47.2808 24.4956 47.5923C24.2736 47.9002 24.1626 48.2905 24.1626 48.7632C24.1626 49.2537 24.2754 49.6494 24.501 49.9502C24.7266 50.251 25.0273 50.4014 25.4033 50.4014Z"
          fill="black"/>
</svg>
